<?xml version="1.0" encoding="UTF-8" standalone="no"?>
<svg
   xmlns:dc="http://purl.org/dc/elements/1.1/"
   xmlns:cc="http://creativecommons.org/ns#"
   xmlns:rdf="http://www.w3.org/1999/02/22-rdf-syntax-ns#"
   xmlns:svg="http://www.w3.org/2000/svg"
   xmlns="http://www.w3.org/2000/svg"
   xmlns:sodipodi="http://sodipodi.sourceforge.net/DTD/sodipodi-0.dtd"
   xmlns:inkscape="http://www.inkscape.org/namespaces/inkscape"
   id="svg"
   width="300"
   height="300"
   viewBox="0 0 100 150"
   version="1.1"
   sodipodi:docname="cyb1.svg"
   inkscape:version="0.92.3 (2405546, 2018-03-11)">
  <metadata
     id="metadata17">
    <rdf:RDF>
      <cc:Work
         rdf:about="">
        <dc:format>image/svg+xml</dc:format>
        <dc:type
           rdf:resource="http://purl.org/dc/dcmitype/StillImage" />
      </cc:Work>
    </rdf:RDF>
  </metadata>
  <defs
     id="defs15" />
  <sodipodi:namedview
     pagecolor="#ffffff"
     bordercolor="#666666"
     borderopacity="1"
     objecttolerance="10"
     gridtolerance="10"
     guidetolerance="10"
     inkscape:pageopacity="0"
     inkscape:pageshadow="2"
     inkscape:window-width="1920"
     inkscape:window-height="1052"
     id="namedview13"
     showgrid="false"
     inkscape:zoom="0.59"
     inkscape:cx="-127.9661"
     inkscape:cy="200"
     inkscape:window-x="0"
     inkscape:window-y="0"
     inkscape:window-maximized="1"
     inkscape:current-layer="svg" />
  <g
     id="svgg"
     transform="translate(-149.15255,-126.27119)">
    <path
       id="path0"
       d="m 195,161.227 c -30.297,4.128 -48.338,34.349 -28.543,47.813 14.709,10.004 51.269,10.403 67.187,0.733 25.229,-15.326 -4.877,-53.146 -38.644,-48.546 m -17.955,27.764 c 6.119,1.817 8.816,9.063 4.386,11.785 -6.894,4.236 -17.377,-5.378 -11.69,-10.721 1.752,-1.646 4.162,-1.997 7.304,-1.064 m 51.959,-0.015 c 1.648,0.689 2.992,2.725 2.995,4.537 0.008,7.479 -13.192,11.345 -15.252,4.467 -1.687,-5.63 6.296,-11.495 12.257,-9.004"
       inkscape:connector-curvature="0"
       style="fill:#38424a;fill-rule:evenodd;stroke:none" />
    <path
       id="path1"
       d="m 192.307,143.245 c -34.687,3.346 -57.448,28.613 -47.437,52.661 13.451,32.311 73.958,39.962 102.078,12.908 30.702,-29.537 -3.44,-70.507 -54.641,-65.569 m 19.778,18.904 c 25.468,6.819 39.628,31.721 25.483,44.816 -15.539,14.386 -64.272,13.135 -76.097,-1.954 -16.074,-20.511 19.999,-51.058 50.614,-42.862 M 129.603,212.9 c 0.011,18.18 7.473,27.083 30.197,36.03 6.594,2.595 6.363,2.797 5.186,-4.53 -2.544,-15.84 -7.933,-24.028 -16.586,-25.203 -8.49,-1.152 -12.973,-3.497 -16.84,-8.807 -0.957,-1.314 -1.79,-2.39 -1.85,-2.39 -0.061,0 -0.109,2.205 -0.107,4.9 M 270.4,208.736 c 0,2.446 -9.682,9.316 -13.896,9.86 -8.272,1.067 -9.307,1.461 -12.372,4.701 -4.336,4.586 -7.768,14.043 -8.855,24.403 -0.393,3.749 -0.685,3.674 5.261,1.35 22.48,-8.79 29.885,-17.15 30.551,-34.493 0.154,-3.985 0.084,-5.726 -0.236,-5.924 -0.249,-0.154 -0.453,-0.108 -0.453,0.103"
       inkscape:connector-curvature="0"
       style="fill:#fbfbfb;fill-rule:evenodd;stroke:none" />
    <path
       id="path2"
       d="m 223.485,188.956 c -6.947,1.914 -9.085,9.85 -3.253,12.078 4.801,1.833 11.477,-2.526 11.477,-7.494 0,-3.687 -3.797,-5.803 -8.224,-4.584 m -52.72,0.756 c -5.686,3.832 -0.008,12.532 7.695,11.792 2.424,-0.233 3.95,-1.292 4.699,-3.26 2.102,-5.523 -7.278,-11.98 -12.394,-8.532"
       inkscape:connector-curvature="0"
       style="fill:#a4d9e1;fill-rule:evenodd;stroke:none" />
    <path
       id="path3"
       d="m 270.058,206.685 c -1.807,4.281 -9.77,8.824 -16.458,9.389 -1.207,0.102 -3.997,2.462 -3.499,2.96 0.262,0.262 6.669,-0.699 8.499,-1.275 5.652,-1.778 12.487,-8.129 12.126,-11.268 l -0.126,-1.091 -0.542,1.285 M 130,206.888 c 0,1.431 3.119,5.523 5.689,7.464 3.783,2.856 6.094,3.653 13.446,4.636 l 1.734,0.232 -0.853,-1.198 c -1.131,-1.587 -1.258,-1.65 -4.566,-2.235 -6.073,-1.073 -11.337,-4.001 -13.944,-7.755 -1.318,-1.898 -1.506,-2.041 -1.506,-1.144"
       inkscape:connector-curvature="0"
       style="fill:#94949c;fill-rule:evenodd;stroke:none" />
    <path
       id="path4"
       d="m 137.918,189.5 c -2.97,3.168 -6.866,10.296 -7.637,13.973 -1.027,4.895 6.123,10.717 15.119,12.311 3.493,0.619 3.415,0.843 0.918,-2.64 -5.017,-6.997 -8.04,-16.239 -7.339,-22.436 0.301,-2.665 0.303,-2.662 -1.061,-1.208 m 35.587,-0.817 c 0.497,0.096 1.217,0.092 1.6,-0.008 0.382,-0.1 -0.025,-0.179 -0.905,-0.174 -0.88,0.004 -1.193,0.086 -0.695,0.182 m 88.175,3.8 c -0.033,6.874 -2.324,13.482 -7.055,20.35 -1.224,1.777 -2.225,3.279 -2.225,3.338 0,0.245 4.747,-0.641 6.6,-1.231 4.892,-1.559 9.339,-4.884 11.07,-8.276 1.312,-2.573 -0.446,-7.599 -4.94,-14.119 -3.366,-4.884 -3.427,-4.885 -3.45,-0.062 M 180,190.525 c 0,0.069 0.585,0.654 1.3,1.3 l 1.3,1.175 -1.175,-1.3 C 180.33,190.488 180,190.216 180,190.525"
       inkscape:connector-curvature="0"
       style="fill:#84a0a8;fill-rule:evenodd;stroke:none" />
    <path
       id="path5"
       d=""
       inkscape:connector-curvature="0"
       style="fill:#9ca4a4;fill-rule:evenodd;stroke:none" />
    <path
       id="path6"
       d="m 199.705,217.087 c 0.609,0.092 1.509,0.09 2,-0.005 0.492,-0.095 -0.005,-0.171 -1.105,-0.168 -1.1,0.003 -1.503,0.081 -0.895,0.173"
       inkscape:connector-curvature="0"
       style="fill:#c4ccce;fill-rule:evenodd;stroke:none" />
    <path
       id="path7"
       d="m 233.4,174.4 c 0.859,0.88 1.652,1.6 1.762,1.6 0.11,0 -0.503,-0.72 -1.362,-1.6 -0.859,-0.88 -1.652,-1.6 -1.762,-1.6 -0.11,0 0.503,0.72 1.362,1.6"
       inkscape:connector-curvature="0"
       style="fill:#d4d4d4;fill-rule:evenodd;stroke:none" />
    <path
       id="path8"
       d=""
       inkscape:connector-curvature="0"
       style="fill:#d4dcdc;fill-rule:evenodd;stroke:none" />
  </g>
</svg>
