<?xml version="1.0" encoding="UTF-8" standalone="no"?>
<svg
   xmlns:dc="http://purl.org/dc/elements/1.1/"
   xmlns:cc="http://creativecommons.org/ns#"
   xmlns:rdf="http://www.w3.org/1999/02/22-rdf-syntax-ns#"
   xmlns:svg="http://www.w3.org/2000/svg"
   xmlns="http://www.w3.org/2000/svg"
   xmlns:sodipodi="http://sodipodi.sourceforge.net/DTD/sodipodi-0.dtd"
   xmlns:inkscape="http://www.inkscape.org/namespaces/inkscape"
   width="208"
   height="210"
   viewBox="0 0 208 210"
   version="1.1"
   id="svg6"
   sodipodi:docname="logo-chaingear.svg"
   inkscape:version="0.92.3 (2405546, 2018-03-11)">
  <metadata
     id="metadata12">
    <rdf:RDF>
      <cc:Work
         rdf:about="">
        <dc:format>image/svg+xml</dc:format>
        <dc:type
           rdf:resource="http://purl.org/dc/dcmitype/StillImage" />
      </cc:Work>
    </rdf:RDF>
  </metadata>
  <defs
     id="defs10" />
  <sodipodi:namedview
     pagecolor="#ffffff"
     bordercolor="#666666"
     borderopacity="1"
     objecttolerance="10"
     gridtolerance="10"
     guidetolerance="10"
     inkscape:pageopacity="0"
     inkscape:pageshadow="2"
     inkscape:window-width="1366"
     inkscape:window-height="710"
     id="namedview8"
     showgrid="false"
     inkscape:zoom="0.63693588"
     inkscape:cx="42.44894"
     inkscape:cy="232.86622"
     inkscape:window-x="64"
     inkscape:window-y="1110"
     inkscape:window-maximized="1"
     inkscape:current-layer="svg6" />
  <g
     id="g4"
     style="fill:#ffffff;fill-rule:evenodd"
     transform="matrix(0.86460746,0,0,0.75257338,12.651858,21.309619)">
    <path
       d="M 126.593,199.28 C 97.758,198.924 75.083,175.797 75.44,146.867 75.976,118.472 98.563,95.881 126.325,95.97 c 29.192,0.09 52.046,23.305 51.332,52.325 -0.803,31.52 -26.157,51.343 -51.064,50.986 m 67.67,-118.758 c 3.57,0.536 5.712,3.482 5.177,7.232 -3.124,20.538 -6.517,41.075 -9.463,61.701 -1.16,8.304 -2.321,16.43 -5.803,24.198 -10.623,23.841 -35.263,39.2 -60.795,37.681 -30.173,-1.785 -54.723,-24.287 -59.186,-54.29 -4.91,-32.948 15.8,-63.575 48.207,-71.343 26.514,-6.34 54.902,5.893 68.56,29.645 0.536,0.625 0.982,1.518 1.875,3.036 1.071,-6.876 2.054,-13.037 3.035,-19.198 0.714,-4.465 1.34,-8.93 2.053,-13.305 0.537,-3.482 3.393,-5.804 6.34,-5.357 z m -61.51,-54.2 c -2.677,1.16 -5.089,2.143 -7.409,3.214 -21.425,9.376 -42.85,18.662 -64.276,28.038 -5,2.143 -9.732,-0.893 -9.195,-5.894 0.268,-2.678 2.053,-4.196 4.463,-5.178 14.552,-6.34 29.193,-12.68 43.744,-19.02 17.854,-7.768 35.709,-15.536 53.563,-23.394 23.48,-10.269 50.707,5.179 53.832,30.538 2.588,20.894 -10.534,39.11 -31.157,43.396 -21.335,4.464 -43.207,-11.787 -45.439,-33.485 -0.537,-5.625 -0.179,-11.161 1.517,-16.519 0.09,-0.268 0.178,-0.804 0.358,-1.696 z m 35.62,-13.305 c -14.015,0.268 -26.157,12.858 -25.889,26.966 0.268,15.18 12.408,27.234 27.138,26.966 14.284,-0.357 26.069,-12.768 25.8,-27.055 C 195.155,24.537 183.372,12.75 168.373,13.018 Z M 60.175,87.398 c 3.124,18.484 -9.91,33.752 -25.086,35.806 -0.446,0.09 -0.803,0.268 -1.607,0.536 5.892,6.25 11.516,12.233 17.051,18.126 1.16,1.25 2.321,2.411 3.393,3.661 2.856,3.125 2.856,6.43 0.089,9.019 -2.5,2.321 -5.803,2.053 -8.57,-0.893 A 4330.366,4330.366 0 0 1 17.77,124.097 C 13.664,119.633 9.11,115.436 5.63,110.525 -8.03,91.148 4.557,64.45 28.214,62.307 c 14.998,-1.34 29.46,10.18 31.96,25.091 z m -30.62,24.288 c 10.533,0.267 18.836,-7.769 19.104,-18.305 0.267,-10.001 -7.856,-18.752 -17.676,-19.02 -10.356,-0.446 -18.569,7.59 -18.837,18.395 -0.268,10 7.678,18.662 17.408,18.93 z"
       id="path2"
       style="fill:#ffffff"
       inkscape:connector-curvature="0" />
  </g>
</svg>
