<?xml version="1.0" encoding="UTF-8" standalone="no"?>
<svg
   xmlns:dc="http://purl.org/dc/elements/1.1/"
   xmlns:cc="http://creativecommons.org/ns#"
   xmlns:rdf="http://www.w3.org/1999/02/22-rdf-syntax-ns#"
   xmlns:svg="http://www.w3.org/2000/svg"
   xmlns="http://www.w3.org/2000/svg"
   xmlns:sodipodi="http://sodipodi.sourceforge.net/DTD/sodipodi-0.dtd"
   xmlns:inkscape="http://www.inkscape.org/namespaces/inkscape"
   id="svg"
   width="300"
   height="206.04651"
   viewBox="0 0 400 286.04651"
   version="1.1"
   sodipodi:docname="logo-js-amino.svg"
   inkscape:version="0.92.3 (2405546, 2018-03-11)">
  <metadata
     id="metadata9">
    <rdf:RDF>
      <cc:Work
         rdf:about="">
        <dc:format>image/svg+xml</dc:format>
        <dc:type
           rdf:resource="http://purl.org/dc/dcmitype/StillImage" />
      </cc:Work>
    </rdf:RDF>
  </metadata>
  <defs
     id="defs7" />
  <sodipodi:namedview
     pagecolor="#ffffff"
     bordercolor="#666666"
     borderopacity="1"
     objecttolerance="10"
     gridtolerance="10"
     guidetolerance="10"
     inkscape:pageopacity="0"
     inkscape:pageshadow="2"
     inkscape:window-width="1920"
     inkscape:window-height="1052"
     id="namedview5"
     showgrid="false"
     inkscape:zoom="0.82504066"
     inkscape:cx="410.29267"
     inkscape:cy="191.50571"
     inkscape:window-x="0"
     inkscape:window-y="0"
     inkscape:window-maximized="1"
     inkscape:current-layer="svg" />
  <g
     id="svgg"
     style="fill:#ffffff">
    <path
       id="path0"
       d="M 2.0888031,138.68519 V 239.06371 H 26.035028 49.979755 v -5.37933 -5.37933 L 35.829781,228.05884 21.681305,227.81109 V 138.81835 49.825605 l 12.671775,0.131618 c 15.995101,0.165685 15.626675,0.315885 15.626675,-6.347113 V 38.305107 H 26.035028 2.0888031 V 138.68519 M 353.17229,43.932189 l 0.2591,5.627082 13.93281,0.157942 13.93132,0.159491 v 88.967976 88.96641 l -14.14998,0.24775 -14.14847,0.24621 v 5.37933 5.37933 h 23.94472 23.94473 V 138.68519 38.305107 H 376.89986 352.9132 l 0.25909,5.627082 M 107.75981,55.36907 c -5.95922,2.595209 -6.32315,12.03923 -0.58559,15.198076 6.16441,3.39576 13.1705,-1.926276 11.86154,-9.008905 -0.88362,-4.783175 -6.91174,-8.090672 -11.27595,-6.189171 m 174.14742,0 c -5.95923,2.595209 -6.32316,12.03923 -0.58559,15.198076 6.1644,3.39576 13.17199,-1.926276 11.86153,-9.008905 -0.88362,-4.783175 -6.91024,-8.090672 -11.27594,-6.189171 M 55.573547,77.321503 c -0.247115,0.662738 -0.332482,4.409997 -0.190203,8.327585 l 0.256101,7.122888 h 29.170093 29.170092 l 0.25461,-7.575036 c 0.18421,-5.453655 -0.0599,-7.78253 -0.87015,-8.31365 -2.07277,-1.359542 -57.279837,-0.94146 -57.790543,0.438213 m 226.390593,0 c -0.24562,0.662738 -0.33099,4.409997 -0.19021,8.327585 l 0.2576,7.122888 h 29.1701 29.16859 l 0.2561,-7.575036 c 0.18272,-5.453655 -0.0599,-7.78253 -0.87164,-8.31365 -2.07128,-1.359542 -57.27834,-0.94146 -57.79054,0.438213 M 107.75981,109.38534 c -5.95922,2.59521 -6.32315,12.03923 -0.58559,15.19808 6.16441,3.39576 13.1705,-1.92628 11.86154,-9.00891 -0.88362,-4.78317 -6.91174,-8.09067 -11.27595,-6.18917 m 174.14742,0 c -5.95923,2.59521 -6.32316,12.03923 -0.58559,15.19808 6.1644,3.39576 13.17199,-1.92628 11.86153,-9.00891 -0.88362,-4.78317 -6.91024,-8.09067 -11.27594,-6.18917 m -123.0859,20.46592 c -2.7033,1.4478 -3.07771,2.08576 -3.32483,5.67353 l -0.27857,4.04147 2.15365,-2.09197 c 3.86698,-3.755 7.88373,-4.00275 16.21975,-0.99565 12.39771,4.46884 20.05978,3.08452 20.05978,-3.62648 v -3.67448 l -2.61643,2.0006 c -3.42966,2.62153 -9.41285,2.57818 -15.23279,-0.10839 -6.06705,-2.8027 -13.08213,-3.30595 -16.98056,-1.21863 m 50.50288,0 c -2.70479,1.4478 -3.07771,2.08576 -3.32482,5.67353 l -0.27857,4.04147 2.15365,-2.09197 c 3.86698,-3.755 7.88223,-4.00275 16.21975,-0.99565 12.3962,4.46884 20.05977,3.08452 20.05977,-3.62648 v -3.67448 l -2.61642,2.0006 c -3.42966,2.62153 -9.41285,2.57818 -15.23279,-0.10839 -6.06706,-2.8027 -13.08214,-3.30595 -16.98057,-1.21863 M 55.203623,141.8239 v 8.1139 h 29.638864 29.640363 l -0.25161,-7.87698 -0.25161,-7.87699 L 84.590878,133.94692 55.203623,133.71 v 8.1139 m 226.392087,0 v 8.1139 h 29.63887 29.63886 l -0.25161,-7.87698 -0.25161,-7.87699 -29.38725,-0.23691 -29.38726,-0.23692 v 8.1139 m -173.8359,21.57616 c -5.95922,2.5952 -6.32315,12.04077 -0.58559,15.19962 6.16441,3.39421 13.1705,-1.92628 11.86154,-9.01045 -0.88362,-4.78163 -6.91174,-8.08913 -11.27595,-6.18917 m 174.14742,0 c -5.95923,2.5952 -6.32316,12.04077 -0.58559,15.19962 6.1644,3.39421 13.17199,-1.92628 11.86153,-9.01045 -0.88362,-4.78163 -6.91024,-8.08913 -11.27594,-6.18917 M 55.203623,194.03931 v 8.1139 h 29.638864 29.640363 l -0.25161,-7.87698 -0.25161,-7.87699 -29.388752,-0.23691 -29.387255,-0.23691 v 8.11389 m 226.392087,0 v 8.1139 h 29.63887 29.63886 l -0.25161,-7.87698 -0.25161,-7.87699 -29.38725,-0.23691 -29.38726,-0.23691"
       style="fill:#ffffff;fill-rule:evenodd;stroke:none;stroke-width:1.52284968"
       inkscape:connector-curvature="0" />
  </g>
</svg>
